<svg width="70" height="72" viewBox="0 0 70 72" fill="none" xmlns="http://www.w3.org/2000/svg">
<g filter="url(#filter0_d_1051_1284)">
<path d="M24.5396 17.9922H26.2474V21.8349H24.5396V17.9922Z" fill="#998DF8"/>
<path d="M28.3818 17.9922H30.0897V21.8349H28.3818V17.9922Z" fill="#998DF8"/>
<path d="M32.2246 17.9922H33.9325V21.8349H32.2246V17.9922Z" fill="#998DF8"/>
<path d="M36.0674 17.9922H37.7752V21.8349H36.0674V17.9922Z" fill="#998DF8"/>
<path d="M39.9102 17.9922H41.618V21.8349H39.9102V17.9922Z" fill="#998DF8"/>
<path d="M43.7529 17.9922H45.4608V21.8349H43.7529V17.9922Z" fill="#998DF8"/>
<path fill-rule="evenodd" clip-rule="evenodd" d="M26.1052 16.748C26.1052 17.7437 24.6108 17.7437 24.6108 16.748C24.6108 15.7507 26.1052 15.7507 26.1052 16.748Z" fill="#998DF8"/>
<path fill-rule="evenodd" clip-rule="evenodd" d="M29.948 16.748C29.948 17.7437 28.4536 17.7437 28.4536 16.748C28.4536 15.7507 29.948 15.7507 29.948 16.748Z" fill="#998DF8"/>
<path fill-rule="evenodd" clip-rule="evenodd" d="M33.7908 16.748C33.7908 17.7437 32.2964 17.7437 32.2964 16.748C32.2964 15.7507 33.7908 15.7507 33.7908 16.748Z" fill="#998DF8"/>
<path fill-rule="evenodd" clip-rule="evenodd" d="M37.6335 16.748C37.6335 17.7437 36.1392 17.7437 36.1392 16.748C36.1392 15.7507 37.6335 15.7507 37.6335 16.748Z" fill="#998DF8"/>
<path fill-rule="evenodd" clip-rule="evenodd" d="M41.4763 16.748C41.4763 17.7437 39.9819 17.7437 39.9819 16.748C39.9819 15.7507 41.4763 15.7507 41.4763 16.748Z" fill="#998DF8"/>
<path fill-rule="evenodd" clip-rule="evenodd" d="M45.3191 16.748C45.3191 17.7437 43.8247 17.7437 43.8247 16.748C43.8247 15.7507 45.3191 15.7507 45.3191 16.748Z" fill="#998DF8"/>
<path d="M24.5396 50.0146H26.2474V53.8573H24.5396V50.0146Z" fill="#998DF8"/>
<path d="M28.3818 50.0146H30.0897V53.8573H28.3818V50.0146Z" fill="#998DF8"/>
<path d="M32.2246 50.0146H33.9325V53.8573H32.2246V50.0146Z" fill="#998DF8"/>
<path d="M36.0674 50.0146H37.7752V53.8573H36.0674V50.0146Z" fill="#998DF8"/>
<path d="M39.9102 50.0146H41.618V53.8573H39.9102V50.0146Z" fill="#998DF8"/>
<path d="M43.7529 50.0146H45.4608V53.8573H43.7529V50.0146Z" fill="#998DF8"/>
<path fill-rule="evenodd" clip-rule="evenodd" d="M26.1052 55.2448C26.1052 56.2405 24.6108 56.2405 24.6108 55.2448C24.6108 54.2491 26.1052 54.2491 26.1052 55.2448Z" fill="#998DF8"/>
<path fill-rule="evenodd" clip-rule="evenodd" d="M29.948 55.2448C29.948 56.2405 28.4536 56.2405 28.4536 55.2448C28.4536 54.2491 29.948 54.2491 29.948 55.2448Z" fill="#998DF8"/>
<path fill-rule="evenodd" clip-rule="evenodd" d="M33.7908 55.2448C33.7908 56.2405 32.2964 56.2405 32.2964 55.2448C32.2964 54.2491 33.7908 54.2491 33.7908 55.2448Z" fill="#998DF8"/>
<path fill-rule="evenodd" clip-rule="evenodd" d="M37.6335 55.2448C37.6335 56.2405 36.1392 56.2405 36.1392 55.2448C36.1392 54.2491 37.6335 54.2491 37.6335 55.2448Z" fill="#998DF8"/>
<path fill-rule="evenodd" clip-rule="evenodd" d="M41.4763 55.2448C41.4763 56.2405 39.9819 56.2405 39.9819 55.2448C39.9819 54.2491 41.4763 54.2491 41.4763 55.2448Z" fill="#998DF8"/>
<path fill-rule="evenodd" clip-rule="evenodd" d="M45.3191 55.2448C45.3191 56.2405 43.8247 56.2405 43.8247 55.2448C43.8247 54.2491 45.3191 54.2491 45.3191 55.2448Z" fill="#998DF8"/>
<path d="M53.1462 46.599C53.6182 46.599 54.0001 46.217 54.0001 45.745C54.0001 45.273 53.6182 44.8911 53.1462 44.8911H49.7305V46.599H53.1462Z" fill="#998DF8"/>
<path d="M53.1462 42.7562C53.6182 42.7562 54.0001 42.3743 54.0001 41.9023C54.0001 41.4303 53.6182 41.0483 53.1462 41.0483H49.7305V42.7562H53.1462Z" fill="#998DF8"/>
<path d="M53.1462 38.9134C53.6182 38.9134 54.0001 38.5315 54.0001 38.0595C54.0001 37.5875 53.6182 37.2056 53.1462 37.2056H49.7305V38.9134H53.1462Z" fill="#998DF8"/>
<path d="M53.1462 35.0707C53.6182 35.0707 54.0001 34.6887 54.0001 34.2167C54.0001 33.7447 53.6182 33.3628 53.1462 33.3628H49.7305V35.0707H53.1462Z" fill="#998DF8"/>
<path d="M53.1462 31.2284C53.6182 31.2284 54.0001 30.8464 54.0001 30.3744C54.0001 29.9024 53.6182 29.5205 53.1462 29.5205H49.7305V31.2284H53.1462Z" fill="#998DF8"/>
<path d="M53.1462 27.3856C53.6182 27.3856 54.0001 27.0037 54.0001 26.5317C54.0001 26.0597 53.6182 25.6777 53.1462 25.6777H49.7305V27.3856H53.1462Z" fill="#998DF8"/>
<path d="M16.8539 44.8911C16.3819 44.8911 16 45.273 16 45.745C16 46.217 16.3819 46.599 16.8539 46.599H20.2697V44.8911H16.8539Z" fill="#998DF8"/>
<path d="M16.8539 41.0483C16.3819 41.0483 16 41.4303 16 41.9023C16 42.3743 16.3819 42.7562 16.8539 42.7562H20.2697V41.0483H16.8539Z" fill="#998DF8"/>
<path d="M16.8539 37.2056C16.3819 37.2056 16 37.5875 16 38.0595C16 38.5315 16.3819 38.9134 16.8539 38.9134H20.2697V37.2056H16.8539Z" fill="#998DF8"/>
<path d="M16.8539 33.3628C16.3819 33.3628 16 33.7447 16 34.2167C16 34.6887 16.3819 35.0707 16.8539 35.0707H20.2697V33.3628H16.8539Z" fill="#998DF8"/>
<path d="M16.8539 29.5205C16.3819 29.5205 16 29.9024 16 30.3744C16 30.8464 16.3819 31.2284 16.8539 31.2284H20.2697V29.5205H16.8539Z" fill="#998DF8"/>
<path d="M16.8539 25.6777C16.3819 25.6777 16 26.0597 16 26.5317C16 27.0037 16.3819 27.3856 16.8539 27.3856H20.2697V25.6777H16.8539Z" fill="#998DF8"/>
<path d="M48.3187 26.6481C48.3154 24.2481 47.1062 22.9988 44.7112 23.0005C41.5256 23.0038 38.2017 23.0022 35.2129 23.0022V22.9938C31.7972 22.9938 28.4515 22.9838 25.0989 22.9972C23.1459 23.0055 21.7566 24.3414 21.7533 26.2628C21.7449 32.4653 21.7316 38.6666 21.7449 44.8691C21.7499 47.134 23.1326 48.5384 25.3591 48.5417C31.7619 48.5517 38.1613 48.5534 44.564 48.5484C47.0524 48.5467 48.3333 47.2508 48.3333 44.7491C48.335 38.7165 48.3267 32.6821 48.3183 26.6478L48.3187 26.6481ZM41.6422 43.4667C39.4624 43.4684 37.3474 43.4667 35.2126 43.4667V43.4751C32.6508 43.4751 30.7529 43.4817 28.5745 43.4717C27.3003 43.465 26.905 43.1298 26.9033 41.8656C26.9 37.6777 26.8766 33.4898 26.8916 29.3017C26.8967 28.0508 27.2702 27.6672 28.4994 27.6639C32.8874 27.6555 37.2706 27.6505 41.6602 27.6572C42.8094 27.6589 43.2163 28.0842 43.218 29.2533C43.2263 33.4413 43.278 37.6291 43.2697 41.8173C43.2664 43.1432 42.9782 43.465 41.6422 43.4667Z" fill="#998DF8"/>
<path d="M40.7641 28.6665H29.236C28.5288 28.6665 27.9551 29.2403 27.9551 29.9474V41.4755C27.9551 42.1826 28.5288 42.7564 29.236 42.7564H40.7641C41.4712 42.7564 42.045 42.1826 42.045 41.4755V29.9474C42.045 29.2403 41.4712 28.6665 40.7641 28.6665ZM33.986 29.5204C34.1261 29.5204 34.2395 29.6338 34.2395 29.7739C34.2395 29.914 34.1261 30.0275 33.986 30.0275C33.8459 30.0275 33.7325 29.914 33.7325 29.7739C33.7325 29.6338 33.8459 29.5204 33.986 29.5204ZM33.132 29.5204C33.2721 29.5204 33.3856 29.6338 33.3856 29.7739C33.3856 29.914 33.2721 30.0275 33.132 30.0275C32.9919 30.0275 32.8785 29.914 32.8785 29.7739C32.8785 29.6338 32.9919 29.5204 33.132 29.5204ZM32.2781 29.5204C32.4182 29.5204 32.5316 29.6338 32.5316 29.7739C32.5316 29.914 32.4182 30.0275 32.2781 30.0275C32.138 30.0275 32.0246 29.914 32.0246 29.7739C32.0246 29.6338 32.138 29.5204 32.2781 29.5204ZM29.236 32.5092C29.236 32.6276 29.1409 32.7227 29.0225 32.7227C28.9041 32.7227 28.809 32.6276 28.809 32.5092V29.7339C28.809 29.6155 28.9041 29.5204 29.0225 29.5204H31.3708C31.4892 29.5204 31.5843 29.6155 31.5843 29.7339C31.5843 29.8523 31.4892 29.9474 31.3708 29.9474H29.236V32.5092ZM30.5169 31.2283H39.4832V40.1946H30.5169V31.2283ZM36.1076 41.9025C35.9675 41.9025 35.8541 41.789 35.8541 41.6489C35.8541 41.5088 35.9675 41.3954 36.1076 41.3954C36.2477 41.3954 36.3611 41.5088 36.3611 41.6489C36.3611 41.789 36.2477 41.9025 36.1076 41.9025ZM36.9615 41.9025C36.8214 41.9025 36.708 41.789 36.708 41.6489C36.708 41.5088 36.8214 41.3954 36.9615 41.3954C37.1016 41.3954 37.215 41.5088 37.215 41.6489C37.215 41.789 37.1016 41.9025 36.9615 41.9025ZM37.8154 41.9025C37.6753 41.9025 37.5619 41.789 37.5619 41.6489C37.5619 41.5088 37.6753 41.3954 37.8154 41.3954C37.9555 41.3954 38.0689 41.5088 38.0689 41.6489C38.0689 41.789 37.9555 41.9025 37.8154 41.9025ZM41.1911 41.689C41.1911 41.8074 41.096 41.9025 40.9776 41.9025H38.6293C38.5109 41.9025 38.4158 41.8074 38.4158 41.689C38.4158 41.5706 38.5109 41.4755 38.6293 41.4755H40.7642V38.9137C40.7642 38.7953 40.8592 38.7002 40.9776 38.7002C41.096 38.7002 41.1911 38.7953 41.1911 38.9137V41.689Z" fill="#998DF8"/>
<path d="M31.7979 38.9138H38.2023V32.5093H31.7979V38.9138ZM34.3596 33.7902H35.6405C36.5845 33.7902 37.3484 34.5541 37.3484 35.498C37.3484 36.442 36.5845 37.2059 35.6405 37.2059H34.3596C33.4157 37.2059 32.6518 36.442 32.6518 35.498C32.6518 34.5541 33.4157 33.7902 34.3596 33.7902Z" fill="#998DF8"/>
<path d="M33.5056 35.9247H36.4943C36.7312 35.9247 36.9213 35.7329 36.9213 35.4978C36.9213 35.2626 36.7312 35.0708 36.4943 35.0708H33.5056C33.2704 35.0708 33.0786 35.2626 33.0786 35.4978C33.0786 35.7329 33.2704 35.9247 33.5056 35.9247Z" fill="#998DF8"/>
</g>
<defs>
<filter id="filter0_d_1051_1284" x="0" y="0" width="70" height="71.9917" filterUnits="userSpaceOnUse" color-interpolation-filters="sRGB">
<feFlood flood-opacity="0" result="BackgroundImageFix"/>
<feColorMatrix in="SourceAlpha" type="matrix" values="0 0 0 0 0 0 0 0 0 0 0 0 0 0 0 0 0 0 127 0" result="hardAlpha"/>
<feOffset/>
<feGaussianBlur stdDeviation="8"/>
<feComposite in2="hardAlpha" operator="out"/>
<feColorMatrix type="matrix" values="0 0 0 0 0.572549 0 0 0 0 0.435294 0 0 0 0 0.952941 0 0 0 1 0"/>
<feBlend mode="normal" in2="BackgroundImageFix" result="effect1_dropShadow_1051_1284"/>
<feBlend mode="normal" in="SourceGraphic" in2="effect1_dropShadow_1051_1284" result="shape"/>
</filter>
</defs>
</svg>
