<svg width="24" height="24" viewBox="0 0 24 24" fill="none" xmlns="http://www.w3.org/2000/svg">
<path d="M18.3211 6.83376C18.3364 6.18005 17.8181 5.6617 17.1644 5.67705L8.79691 5.87351C8.1432 5.88886 7.59993 6.43213 7.58458 7.08584C7.56923 7.73955 8.08758 8.2579 8.74129 8.24255L14.256 8.11046L6.04537 16.3211C5.57168 16.7948 5.55412 17.5426 6.00608 17.9946C6.45804 18.4466 7.20588 18.429 7.67957 17.9553L15.8876 9.74733L15.7608 15.2567C15.7455 15.9104 16.2638 16.4288 16.9175 16.4134C17.5712 16.3981 18.1145 15.8548 18.1298 15.2011L18.3263 6.83364L18.3211 6.83376Z" fill="white"/>
</svg>
