<svg width="76" height="74" viewBox="0 0 76 74" fill="none" xmlns="http://www.w3.org/2000/svg">
<g filter="url(#filter0_d_223_3868)">
<path fill-rule="evenodd" clip-rule="evenodd" d="M18 55.0952V41.5239C18 40.0247 19.2209 38.8096 20.7273 38.8096H22.5455C24.0519 38.8096 25.2728 40.0247 25.2728 41.5239V54.0475C25.891 54.0177 26.4974 53.9815 27.091 53.9408V37.9049C27.091 36.4057 28.3119 35.1906 29.8183 35.1906H31.6365C33.1429 35.1906 34.3638 36.4057 34.3638 37.9049V53.0424C34.9884 52.922 35.5938 52.7908 36.182 52.6488V35.1906C36.182 34.4704 36.4693 33.7801 36.9812 33.2716C37.4921 32.7622 38.1857 32.4763 38.9093 32.4763H40.7275C41.4512 32.4763 42.1448 32.7622 42.6557 33.2716C43.1675 33.7801 43.4549 34.4704 43.4549 35.1906V49.768C44.0967 49.3727 44.703 48.9456 45.2731 48.4851V32.4763C45.2731 30.9771 46.494 29.7621 48.0004 29.7621H49.8186C51.3249 29.7621 52.5459 30.9771 52.5459 32.4763V33.8244C53.1395 30.1963 53.4104 25.9793 53.4495 21.0945L52.2795 22.2589C51.9249 22.6118 51.3486 22.6118 50.9941 22.2589C50.6395 21.9061 50.6395 21.3324 50.9941 20.9796L53.7214 18.2653C54.0759 17.9116 54.6522 17.9116 55.0068 18.2653L57.7341 20.9796C58.0886 21.3324 58.0886 21.9061 57.7341 22.2589C57.3795 22.6118 56.8032 22.6118 56.4487 22.2589L55.2677 21.0836C55.1968 29.544 54.3968 36.08 52.5295 41.0824C52.5195 41.133 52.505 41.1828 52.4868 41.2307C51.3531 44.2056 49.8304 46.6376 47.8476 48.6099C47.5031 48.9529 47.144 49.2822 46.7713 49.5979C45.6676 50.5307 44.4358 51.345 43.0639 52.0525C43.0312 52.0743 42.9966 52.0951 42.9612 52.1141C41.293 52.9664 39.4212 53.6594 37.323 54.2113C37.2693 54.2258 37.2148 54.2348 37.1612 54.2384C36.0866 54.5162 34.9539 54.7569 33.7593 54.965C33.7102 54.9822 33.6602 54.9948 33.6075 55.0039C31.8929 55.2943 30.051 55.516 28.0738 55.6752C28.0365 55.6779 27.9992 55.6788 27.9628 55.677C26.8428 55.7675 25.6801 55.8371 24.4737 55.8887C24.4491 55.8923 24.4255 55.8941 24.401 55.8951C22.6646 55.9665 20.8355 56 18.9091 56C18.4073 56 18 55.5947 18 55.0952ZM19.8182 54.1878C21.0728 54.1805 22.2846 54.1579 23.4546 54.119V41.5239C23.4546 41.0245 23.0473 40.6191 22.5455 40.6191H20.7273C20.2255 40.6191 19.8182 41.0245 19.8182 41.5239V54.1878ZM47.0913 46.7787C48.6104 45.1167 49.804 43.1199 50.7277 40.7431V32.4763C50.7277 31.9769 50.3204 31.5716 49.8186 31.5716H48.0004C47.4985 31.5716 47.0913 31.9769 47.0913 32.4763V46.7787ZM32.5456 53.3427V37.9049C32.5456 37.4054 32.1384 37.0001 31.6365 37.0001H29.8183C29.3165 37.0001 28.9092 37.4054 28.9092 37.9049V53.7861C30.1801 53.6675 31.392 53.5201 32.5456 53.3427ZM41.6366 50.7479V35.1906C41.6366 34.9508 41.5412 34.7201 41.3703 34.5509C41.2003 34.3808 40.9685 34.2858 40.7275 34.2858H38.9093C38.6684 34.2858 38.4366 34.3808 38.2666 34.5509C38.0957 34.7201 38.0002 34.9508 38.0002 35.1906V52.1403C39.3103 51.744 40.5212 51.2826 41.6366 50.7479Z" fill="#59AFFF"/>
</g>
<defs>
<filter id="filter0_d_223_3868" x="0" y="0" width="76" height="74" filterUnits="userSpaceOnUse" color-interpolation-filters="sRGB">
<feFlood flood-opacity="0" result="BackgroundImageFix"/>
<feColorMatrix in="SourceAlpha" type="matrix" values="0 0 0 0 0 0 0 0 0 0 0 0 0 0 0 0 0 0 127 0" result="hardAlpha"/>
<feOffset/>
<feGaussianBlur stdDeviation="9"/>
<feComposite in2="hardAlpha" operator="out"/>
<feColorMatrix type="matrix" values="0 0 0 0 0.469445 0 0 0 0 0.7135 0 0 0 0 1 0 0 0 1 0"/>
<feBlend mode="normal" in2="BackgroundImageFix" result="effect1_dropShadow_223_3868"/>
<feBlend mode="normal" in="SourceGraphic" in2="effect1_dropShadow_223_3868" result="shape"/>
</filter>
</defs>
</svg>
