<svg width="76" height="72" viewBox="0 0 76 72" fill="none" xmlns="http://www.w3.org/2000/svg">
<g filter="url(#filter0_d_223_3856)">
<path fill-rule="evenodd" clip-rule="evenodd" d="M18 20.8814C18 19.2904 19.0974 18 20.4541 18H23.1877C24.5444 18 25.6418 19.2904 25.6418 20.8814V21.4717H53.2124C55.8489 21.4717 57.9942 23.9887 57.9999 27.0814C58 27.0856 58 27.0897 58 27.0938V45.0003C58 48.0987 55.8525 50.6225 53.2124 50.6225H25.6419V51.2127C25.6419 52.8038 24.5445 54.0941 23.1878 54.0941C21.8311 54.0941 20.7337 52.8038 20.7337 51.2127V23.7628H20.4541C19.0974 23.7628 18 22.4724 18 20.8814ZM56.0476 27.1049C56.0476 27.1012 56.0476 27.0975 56.0476 27.0938C56.0476 25.2588 54.7726 23.7628 53.2124 23.7628H24.6656C24.1265 23.7628 23.6894 23.2499 23.6894 22.6172V20.8814C23.6894 20.5538 23.4645 20.2911 23.1877 20.2911H20.4541C20.1773 20.2911 19.9524 20.5538 19.9524 20.8814C19.9524 21.209 20.1773 21.4717 20.4541 21.4717H21.7099C22.249 21.4717 22.686 21.9846 22.686 22.6172V51.2127C22.686 51.5403 22.911 51.803 23.1878 51.803C23.4646 51.803 23.6895 51.5403 23.6895 51.2127V49.4769C23.6895 48.8442 24.1265 48.3314 24.6657 48.3314H53.2124C54.7726 48.3314 56.0476 46.8353 56.0476 45.0003V27.1049Z" fill="#59AFFF"/>
</g>
<g filter="url(#filter1_d_223_3856)">
<path fill-rule="evenodd" clip-rule="evenodd" d="M40.7019 27.1363C40.8778 26.6542 41.3103 26.3739 41.7517 26.4558L42.0434 26.5099C42.0441 26.51 42.0447 26.5101 42.0454 26.5103C44.6903 26.989 46.9644 28.9717 48.1527 31.794L48.495 32.6072C48.6585 32.9957 48.6213 33.4592 48.3987 33.805C48.1761 34.1508 47.8064 34.3196 47.4432 34.2412L46.68 34.0766C45.6001 33.8423 44.5035 33.8716 43.4127 34.1538L43.2643 34.2014C42.9652 34.2972 42.6452 34.2207 42.4019 33.9951L42.2541 33.8581C42.2541 33.858 42.2541 33.8581 42.2541 33.8581C41.9379 33.5648 41.5694 33.3719 41.1827 33.2945L40.8983 33.2403C40.4741 33.1595 40.1449 32.7626 40.0873 32.2629L40.0471 31.9135C39.8862 30.4011 40.0642 28.8609 40.5864 27.4528L40.7019 27.1363ZM42.2096 28.8795C42.0037 29.6082 41.9162 30.3782 41.949 31.1518C42.4062 31.3027 42.8391 31.5418 43.2309 31.8581C44.0803 31.662 44.9386 31.5897 45.796 31.6479C44.9133 30.2594 43.6447 29.273 42.2096 28.8795ZM38.8892 27.1022C39.184 27.3633 39.3281 27.7972 39.2614 28.2235L39.1212 29.1199C38.9203 30.3971 38.947 31.6943 39.1919 32.9843L39.193 32.9901L39.2319 33.2003C39.2938 33.5348 39.225 33.8842 39.0444 34.1529L38.9277 34.3265C38.9277 34.3265 38.9277 34.3265 38.9277 34.3265C38.678 34.698 38.5135 35.1311 38.4476 35.5859L38.4014 35.9199C38.3327 36.4177 37.9946 36.8042 37.5687 36.8718L37.2809 36.9175L37.2642 36.92C36.9835 36.9588 36.6761 36.9918 36.3566 36.9918C35.3649 36.9918 34.3844 36.7483 33.4774 36.2842L33.4613 36.2758L33.1891 36.1296C32.7909 35.9157 32.5628 35.4169 32.631 34.9094L32.6774 34.5644C33.0849 31.459 34.7725 28.7879 37.176 27.392L37.8683 26.99C38.1993 26.7978 38.5944 26.8412 38.8892 27.1022ZM37.0516 30.1591C35.8682 31.1979 35.0279 32.6914 34.6943 34.3811C35.2308 34.592 35.7924 34.7007 36.3566 34.7007C36.4423 34.7007 36.5299 34.697 36.6206 34.6904C36.7502 34.1473 36.9566 33.6334 37.2302 33.1689C37.0636 32.1723 37.0022 31.1652 37.0516 30.1591ZM44.9593 37.407C44.8297 37.949 44.6235 38.4619 44.3504 38.9255C44.5171 39.9221 44.5784 40.9292 44.529 41.9353C45.713 40.896 46.5535 39.4015 46.8868 37.7109C46.2685 37.4708 45.6154 37.3688 44.9593 37.407ZM48.1085 35.8088C46.9094 35.1954 45.5976 34.9863 44.3095 35.1754L44.012 35.2225C43.5861 35.2902 43.248 35.6767 43.1792 36.1745L43.1331 36.5084C43.0671 36.9632 42.9027 37.3963 42.653 37.7679L42.5363 37.9414C42.3556 38.2102 42.2869 38.5596 42.3488 38.8941L42.3877 39.1042L42.3888 39.1101C42.6336 40.4001 42.6603 41.6972 42.4594 42.9744L42.3192 43.8709C42.2526 44.2972 42.3966 44.7311 42.6914 44.9921C42.9862 45.2532 43.3813 45.2966 43.7123 45.1044L44.4046 44.7024C46.8049 43.3083 48.4913 40.6424 48.9016 37.5423L48.954 37.1996C49.0342 36.6749 48.7954 36.1547 48.378 35.9445L48.1085 35.8088ZM33.1741 38.2802C33.3967 37.9345 33.7664 37.7657 34.1296 37.844L34.888 38.0076C34.8886 38.0077 34.8892 38.0079 34.8898 38.008C35.9759 38.2367 37.0962 38.2118 38.1807 37.926L38.187 37.9244L38.3659 37.8787C38.6513 37.8058 38.9495 37.8867 39.1787 38.0993L39.3265 38.2363C39.3265 38.2363 39.3265 38.2363 39.3265 38.2363C39.6427 38.5295 40.0112 38.7225 40.3979 38.7999L40.6823 38.854C41.1065 38.9349 41.4358 39.3317 41.4933 39.8315L41.5334 40.1799C41.6952 41.69 41.5065 43.23 40.9864 44.6324L40.8709 44.9489C40.695 45.431 40.2626 45.7113 39.8211 45.6294L39.5294 45.5753C39.5287 45.5752 39.528 45.5751 39.5273 45.5749C36.8825 45.0962 34.6084 43.1135 33.4201 40.2912L33.0778 39.478C32.9143 39.0895 32.9516 38.626 33.1741 38.2802ZM35.7742 40.4333C36.6571 41.8241 37.927 42.812 39.3638 43.2058C39.5717 42.4755 39.6622 41.7073 39.6313 40.9425C39.1702 40.7902 38.7338 40.5483 38.3394 40.2279C37.4916 40.4233 36.6294 40.4909 35.7742 40.4333Z" fill="#59AFFF"/>
</g>
<defs>
<filter id="filter0_d_223_3856" x="0.428572" y="0.428572" width="75.1429" height="71.2371" filterUnits="userSpaceOnUse" color-interpolation-filters="sRGB">
<feFlood flood-opacity="0" result="BackgroundImageFix"/>
<feColorMatrix in="SourceAlpha" type="matrix" values="0 0 0 0 0 0 0 0 0 0 0 0 0 0 0 0 0 0 127 0" result="hardAlpha"/>
<feOffset/>
<feGaussianBlur stdDeviation="8.78571"/>
<feComposite in2="hardAlpha" operator="out"/>
<feColorMatrix type="matrix" values="0 0 0 0 0.469445 0 0 0 0 0.7135 0 0 0 0 1 0 0 0 1 0"/>
<feBlend mode="normal" in2="BackgroundImageFix" result="effect1_dropShadow_223_3856"/>
<feBlend mode="normal" in="SourceGraphic" in2="effect1_dropShadow_223_3856" result="shape"/>
</filter>
<filter id="filter1_d_223_3856" x="15.0476" y="8.87022" width="51.4932" height="54.3448" filterUnits="userSpaceOnUse" color-interpolation-filters="sRGB">
<feFlood flood-opacity="0" result="BackgroundImageFix"/>
<feColorMatrix in="SourceAlpha" type="matrix" values="0 0 0 0 0 0 0 0 0 0 0 0 0 0 0 0 0 0 127 0" result="hardAlpha"/>
<feOffset/>
<feGaussianBlur stdDeviation="8.78571"/>
<feComposite in2="hardAlpha" operator="out"/>
<feColorMatrix type="matrix" values="0 0 0 0 0.469445 0 0 0 0 0.7135 0 0 0 0 1 0 0 0 1 0"/>
<feBlend mode="normal" in2="BackgroundImageFix" result="effect1_dropShadow_223_3856"/>
<feBlend mode="normal" in="SourceGraphic" in2="effect1_dropShadow_223_3856" result="shape"/>
</filter>
</defs>
</svg>
