<svg width="89" height="16" viewBox="0 0 89 16" fill="none" xmlns="http://www.w3.org/2000/svg">
<path d="M87.0207 12.8704V12.6235H87.1734C87.2542 12.6235 87.3709 12.6326 87.3709 12.7332C87.3709 12.8338 87.3081 12.8704 87.2093 12.8704H87.0207ZM87.0207 13.0442H87.1285L87.3709 13.474H87.6313L87.362 13.0259C87.4967 13.035 87.6044 12.9344 87.6134 12.7972V12.7607C87.6134 12.5229 87.4518 12.4497 87.1824 12.4497H86.7962V13.474H87.0207V13.0442ZM88.1522 12.9619C88.1522 12.3582 87.6942 12.0107 87.1824 12.0107C86.6705 12.0107 86.2126 12.3582 86.2126 12.9619C86.2126 13.5655 86.6705 13.913 87.1824 13.913C87.6942 13.913 88.1522 13.5655 88.1522 12.9619ZM87.8648 12.9619C87.8828 13.346 87.5864 13.6752 87.2093 13.6935H87.1824C86.7873 13.7118 86.455 13.3917 86.4371 12.9893C86.4191 12.5869 86.7334 12.2485 87.1285 12.2302C87.5236 12.2119 87.8558 12.532 87.8738 12.9344C87.8648 12.9436 87.8648 12.9527 87.8648 12.9619ZM52.5482 2.80088V13.5929H55.5384V2.80088H52.5482ZM29.0217 2.78259V13.5838H32.0389V5.19708L34.3915 5.20623C35.1637 5.20623 35.7025 5.39829 36.0707 5.80071C36.5466 6.31287 36.7352 7.14514 36.7352 8.65419V13.5838H39.6625V7.62072C39.6625 3.35878 36.9956 2.78259 34.3915 2.78259H29.0217ZM57.3702 2.80088V13.5929H62.2192C64.8053 13.5929 65.6494 13.1539 66.5563 12.1753C67.2028 11.4894 67.6159 9.97119 67.6159 8.3158C67.6159 6.7976 67.2657 5.44402 66.6461 4.60261C65.5506 3.09355 63.9522 2.80088 61.5637 2.80088H57.3702ZM60.3335 5.14221H61.6175C63.4853 5.14221 64.6886 5.99277 64.6886 8.20605C64.6886 10.4193 63.4853 11.279 61.6175 11.279H60.3335V5.14221ZM48.238 2.80088L45.7417 11.3522L43.3531 2.80088H40.1205L43.5327 13.5929H47.8429L51.291 2.80088H48.238ZM69.0167 13.5929H72.0069V2.80088H69.0167V13.5929ZM77.4036 2.80088L73.2281 13.5838H76.1734L76.8379 11.6723H81.7767L82.4052 13.5746H85.6109L81.3995 2.80088H77.4036ZM79.3432 4.76723L81.1571 9.81571H77.4755L79.3432 4.76723Z" fill="white"/>
<path d="M9.57779 4.7724V3.32999C9.72117 3.32109 9.86455 3.31219 10.0079 3.31219C13.9867 3.18753 16.5945 6.71341 16.5945 6.71341C16.5945 6.71341 13.7806 10.5954 10.7607 10.5954C10.3574 10.5954 9.96312 10.5331 9.58675 10.4085V6.02782C11.1371 6.2148 11.4507 6.89149 12.3737 8.43183L14.4438 6.70451C14.4438 6.70451 12.9293 4.73678 10.3843 4.73678C10.1155 4.72788 9.84663 4.74569 9.57779 4.7724ZM9.57779 0V2.1547L10.0079 2.12799C15.537 1.94101 19.1484 6.63328 19.1484 6.63328C19.1484 6.63328 15.0083 11.6372 10.6979 11.6372C10.3216 11.6372 9.95416 11.6016 9.58675 11.5392V12.8748C9.89143 12.9104 10.2051 12.9371 10.5098 12.9371C14.5244 12.9371 17.4279 10.8982 20.2417 8.49416C20.7077 8.86811 22.6165 9.76739 23.0108 10.1592C20.3403 12.3851 14.1122 14.1747 10.5815 14.1747C10.2409 14.1747 9.91832 14.1569 9.59571 14.1213V16H24.8478V0L9.57779 0ZM9.57779 10.4085V11.5481C5.86781 10.8893 4.83726 7.05175 4.83726 7.05175C4.83726 7.05175 6.62056 5.09293 9.57779 4.7724V6.01892H9.56883C8.01852 5.83194 6.79979 7.27435 6.79979 7.27435C6.79979 7.27435 7.48981 9.70506 9.57779 10.4085ZM2.99124 6.89149C2.99124 6.89149 5.18676 3.66834 9.58675 3.32999V2.1547C4.71181 2.54647 0.5 6.64218 0.5 6.64218C0.5 6.64218 2.8837 13.4981 9.57779 14.1213V12.8748C4.667 12.2693 2.99124 6.89149 2.99124 6.89149Z" fill="white"/>
</svg>
