<svg width="70" height="74" viewBox="0 0 70 74" fill="none" xmlns="http://www.w3.org/2000/svg">
<g filter="url(#filter0_d_1051_185)">
<path fill-rule="evenodd" clip-rule="evenodd" d="M16 33.6151C19.0157 28.8391 24.7023 26.0199 30.8713 25.1578C29.7816 25.6561 28.7971 26.3424 27.9626 27.1786C26.1608 28.9804 25.0469 31.4685 25.0469 34.2168C25.0469 36.965 26.1607 39.4531 27.9626 41.255C28.7988 42.0912 29.7834 42.7792 30.8713 43.2757C24.7018 42.4136 19.0157 39.5945 16 34.8184H19.6623C19.8399 34.8184 19.9985 34.7426 20.1088 34.6202L21.2434 33.5356C21.4124 33.6012 21.5934 33.6356 21.7848 33.6356C22.6159 33.6356 23.2901 32.9615 23.2901 32.1304C23.2901 31.2993 22.6159 30.6251 21.7848 30.6251C20.9537 30.6251 20.2795 31.2992 20.2795 32.1304C20.2795 32.3286 20.3175 32.5183 20.3882 32.6907L19.4243 33.6132L16 33.6151ZM39.1287 25.1578C45.2982 26.0216 50.9843 28.839 54 33.6151H50.3377C50.1601 33.6151 50.0015 33.691 49.8911 33.8134L48.7566 34.8979C48.5876 34.8324 48.4066 34.7979 48.2152 34.7979C47.3841 34.7979 46.7099 35.4721 46.7099 36.3032C46.7099 37.1343 47.3841 37.8085 48.2152 37.8085C49.0463 37.8085 49.7205 37.1343 49.7205 36.3032C49.7205 36.1049 49.6825 35.9152 49.6118 35.7428L50.5757 34.8204H54C50.9843 39.5964 45.2977 42.4138 39.1287 43.2777C40.2184 42.7794 41.2029 42.0931 42.0374 41.2569C43.8392 39.4551 44.9531 36.967 44.9531 34.2187C44.9531 31.4703 43.8393 28.9823 42.0374 27.1805C41.2029 26.3443 40.2184 25.6561 39.1287 25.1578ZM40.9839 32.6356H40.9822C40.9701 32.5908 40.9529 32.5442 40.9288 32.5011C40.7701 32.2097 40.4063 32.1028 40.1149 32.2615C39.9701 32.3408 39.8114 32.4028 39.639 32.4477C39.4769 32.4891 39.3062 32.5115 39.1304 32.5115C38.5631 32.5115 38.0493 32.2822 37.6768 31.9097C37.3044 31.5373 37.0751 31.0235 37.0751 30.4562C37.0751 30.2406 37.1061 30.0389 37.1613 29.8544C37.2199 29.663 37.3096 29.4785 37.4234 29.3095C37.4492 29.2699 37.4717 29.2268 37.4889 29.1802C37.6027 28.8681 37.4441 28.5233 37.132 28.4095C36.794 28.2853 36.444 28.1905 36.0836 28.1267C35.7302 28.0612 35.3698 28.0284 35.0008 28.0284C33.2921 28.0284 31.7438 28.7216 30.6247 29.8406C29.504 30.9614 28.8125 32.508 28.8125 34.2167C28.8125 35.9254 29.5057 37.4738 30.6247 38.5928C31.7455 39.7136 33.2921 40.405 35.0008 40.405C36.7096 40.405 38.2579 39.7119 39.377 38.5928C40.4977 37.4721 41.1891 35.9254 41.1891 34.2167C41.1891 33.9581 41.1702 33.6908 41.1357 33.4184C41.1012 33.1477 41.0512 32.8856 40.9839 32.6356ZM39.9856 34.2184C39.9856 34.0029 39.9735 33.7995 39.9511 33.6098L39.9356 33.6132C39.677 33.6788 39.4063 33.7133 39.1304 33.7133C38.2303 33.7133 37.4148 33.3477 36.8251 32.758C36.2354 32.1683 35.8698 31.3528 35.8698 30.4527C35.8698 30.1268 35.9198 29.8078 36.0129 29.5027C36.0285 29.4492 36.0457 29.3975 36.0647 29.344C36.0009 29.3302 35.9388 29.3182 35.875 29.3061C35.594 29.2595 35.3008 29.232 35.0008 29.232C33.6249 29.232 32.3783 29.7906 31.4747 30.6924C30.573 31.5942 30.0143 32.8408 30.0143 34.2184C30.0143 35.5944 30.573 36.841 31.4747 37.7445C32.3765 38.6463 33.6231 39.2049 35.0008 39.2049C36.3768 39.2049 37.6234 38.6463 38.5269 37.7445C39.4287 36.841 39.9856 35.5944 39.9856 34.2184ZM41.1874 28.0317C39.6046 26.4489 37.4165 25.4695 35.0007 25.4695C32.5849 25.4695 30.3969 26.4489 28.814 28.0317C27.2312 29.6146 26.2518 31.8026 26.2518 34.2184C26.2518 36.6343 27.2312 38.8223 28.814 40.4052C30.3968 41.988 32.5849 42.9674 35.0007 42.9674C37.4165 42.9674 39.6045 41.988 41.1874 40.4052C42.7702 38.8223 43.7496 36.6343 43.7496 34.2184C43.7496 31.8011 42.7702 29.6146 41.1874 28.0317ZM43.8048 47.0518C43.8048 46.719 44.0755 46.4501 44.4066 46.4501C44.7394 46.4501 45.0083 46.719 45.0083 47.0518V49.3589L47.7551 52.0314C47.7792 52.0538 47.7999 52.078 47.8189 52.1038C48.0758 51.9711 48.3654 51.8969 48.6741 51.8969C49.7052 51.8969 50.5397 52.7332 50.5397 53.7626C50.5397 54.7936 49.7035 55.6282 48.6741 55.6282C47.643 55.6282 46.8084 54.792 46.8084 53.7626C46.8084 53.4729 46.874 53.1988 46.9929 52.9539C46.9671 52.935 46.9412 52.916 46.9188 52.8918L44.0204 50.071C43.8893 49.9607 43.8048 49.7951 43.8048 49.6089L43.8048 47.0518ZM36.8664 55.1745C36.8664 56.2056 36.0301 57.0402 35.0007 57.0402C33.9697 57.0402 33.1351 56.2039 33.1351 55.1745C33.1351 54.3521 33.6679 53.6538 34.4059 53.4055C34.4007 53.3744 34.3972 53.3417 34.3972 53.3089V49.0845C34.3972 48.7518 34.6662 48.4828 34.999 48.4828C35.3318 48.4828 35.6008 48.7518 35.6008 49.0845V53.3089C35.6008 53.3417 35.5973 53.3744 35.5922 53.4055C36.3336 53.6538 36.8664 54.3521 36.8664 55.1745ZM19.4618 53.6917C19.4618 54.7227 20.2964 55.5573 21.3275 55.5573C22.3586 55.5573 23.1931 54.7211 23.1931 53.6917C23.1931 53.402 23.1276 53.1279 23.0086 52.883C23.0345 52.8658 23.0603 52.8451 23.0828 52.821L25.9812 50.0001C26.1122 49.8898 26.1967 49.7242 26.1967 49.538V47.05C26.1967 46.7172 25.926 46.4482 25.595 46.4482C25.2622 46.4482 24.9932 46.7189 24.9932 47.05V49.2863L22.2465 51.9588C22.2223 51.9813 22.2016 52.0054 22.1827 52.0313C21.9258 51.8985 21.6361 51.8244 21.3275 51.8244C20.2964 51.8261 19.4618 52.6623 19.4618 53.6917ZM24.3725 25.9746C30.9158 23.3572 39.0853 23.3572 45.6269 25.9746C44.7096 24.9039 43.6182 23.9745 42.3923 23.2262L45.6045 20.0139C45.839 19.7795 45.839 19.3967 45.6045 19.1622C45.3683 18.9277 44.9872 18.9277 44.7527 19.1622L41.2939 22.621C39.5766 21.7744 37.6472 21.2623 35.6007 21.1778L35.6024 16.6018C35.6024 16.269 35.3317 16 35.0007 16C34.6679 16 34.3989 16.2707 34.3989 16.6018V21.1778C32.3522 21.2623 30.4228 21.7727 28.7057 22.621L25.2469 19.1622C25.0107 18.9277 24.6296 18.9277 24.3951 19.1622C24.1606 19.3967 24.1606 19.7794 24.3951 20.0139L27.6073 23.2262C26.3814 23.9745 25.2897 24.9039 24.3725 25.9746ZM45.6287 42.4602C39.0853 45.0776 30.9158 45.0776 24.3742 42.4602C26.8864 45.3948 30.7141 47.2693 35.0006 47.2693C39.287 47.2693 43.1149 45.395 45.6287 42.4602Z" fill="#998DF8"/>
</g>
<defs>
<filter id="filter0_d_1051_185" x="0" y="0" width="70" height="73.04" filterUnits="userSpaceOnUse" color-interpolation-filters="sRGB">
<feFlood flood-opacity="0" result="BackgroundImageFix"/>
<feColorMatrix in="SourceAlpha" type="matrix" values="0 0 0 0 0 0 0 0 0 0 0 0 0 0 0 0 0 0 127 0" result="hardAlpha"/>
<feOffset/>
<feGaussianBlur stdDeviation="8"/>
<feComposite in2="hardAlpha" operator="out"/>
<feColorMatrix type="matrix" values="0 0 0 0 0.572549 0 0 0 0 0.435294 0 0 0 0 0.952941 0 0 0 1 0"/>
<feBlend mode="normal" in2="BackgroundImageFix" result="effect1_dropShadow_1051_185"/>
<feBlend mode="normal" in="SourceGraphic" in2="effect1_dropShadow_1051_185" result="shape"/>
</filter>
</defs>
</svg>
