<svg width="68" height="72" viewBox="0 0 68 72" fill="none" xmlns="http://www.w3.org/2000/svg">
<g filter="url(#filter0_d_373_37862)">
<path fill-rule="evenodd" clip-rule="evenodd" d="M48.087 33.4144V26.1603L34 19.913L19.913 26.1603V33.4144C19.913 41.9678 25.7224 49.4199 34 51.517C42.2776 49.4199 48.087 41.9678 48.087 33.4144ZM18.3267 22.5832C16.912 23.2106 16 24.6128 16 26.1603V33.4144C16 43.8276 23.1187 52.8913 33.2354 55.3588C33.7377 55.4817 34.2623 55.4817 34.7646 55.3588C44.8813 52.8913 52 43.8276 52 33.4144V26.1603C52 24.6128 51.0879 23.2106 49.6733 22.5832L35.5863 16.336C34.5762 15.888 33.4238 15.888 32.4137 16.336L18.3267 22.5832Z" fill="#998DF8"/>
<path d="M35.9565 35.848C37.1261 35.1714 37.913 33.9069 37.913 32.4585C37.913 30.2974 36.1611 28.5454 34 28.5454C31.8389 28.5454 30.0869 30.2974 30.0869 32.4585C30.0869 33.9069 30.8738 35.1714 32.0434 35.848V40.2846C32.0434 41.3651 32.9194 42.2411 34 42.2411C35.0805 42.2411 35.9565 41.3651 35.9565 40.2846V35.848Z" fill="#998DF8"/>
</g>
<defs>
<filter id="filter0_d_373_37862" x="0" y="0" width="68" height="71.451" filterUnits="userSpaceOnUse" color-interpolation-filters="sRGB">
<feFlood flood-opacity="0" result="BackgroundImageFix"/>
<feColorMatrix in="SourceAlpha" type="matrix" values="0 0 0 0 0 0 0 0 0 0 0 0 0 0 0 0 0 0 127 0" result="hardAlpha"/>
<feOffset/>
<feGaussianBlur stdDeviation="8"/>
<feComposite in2="hardAlpha" operator="out"/>
<feColorMatrix type="matrix" values="0 0 0 0 0.572549 0 0 0 0 0.435294 0 0 0 0 0.952941 0 0 0 1 0"/>
<feBlend mode="normal" in2="BackgroundImageFix" result="effect1_dropShadow_373_37862"/>
<feBlend mode="normal" in="SourceGraphic" in2="effect1_dropShadow_373_37862" result="shape"/>
</filter>
</defs>
</svg>
