<svg width="40" height="40" viewBox="0 0 40 40" fill="none" xmlns="http://www.w3.org/2000/svg">
<g clip-path="url(#clip0_677_60861)">
<rect width="40" height="40" rx="4" fill="#000405"/>
<g filter="url(#filter0_d_677_60861)">
<path d="M19.2676 11.2C19.2676 11.6052 19.5957 11.9333 20.0009 11.9333C20.4061 11.9333 20.7342 11.6052 20.7342 11.2V9.73333C20.7342 9.32816 20.4061 9 20.0009 9C19.5957 9 19.2676 9.32816 19.2676 9.73333V11.2Z" fill="#0FF47F"/>
<path fill-rule="evenodd" clip-rule="evenodd" d="M12.666 20.0001C12.666 15.9502 15.9495 12.6667 19.9993 12.6667C24.0492 12.6667 27.3327 15.9502 27.3327 20.0001C27.3327 24.05 24.0492 27.3334 19.9993 27.3334C15.9495 27.3334 12.666 24.05 12.666 20.0001ZM19.266 15.9666C19.266 15.5615 19.5942 15.2333 19.9993 15.2333C22.6321 15.2333 24.7659 17.3673 24.7659 19.9998C24.7659 22.6324 22.6319 24.7664 19.9993 24.7664C19.5942 24.7664 19.266 24.4382 19.266 24.0331V15.9666Z" fill="#0FF47F"/>
<path d="M20.0009 31C19.5957 31 19.2676 30.6718 19.2676 30.2667V28.8C19.2676 28.3948 19.5957 28.0667 20.0009 28.0667C20.4061 28.0667 20.7342 28.3948 20.7342 28.8V30.2667C20.7342 30.6718 20.4061 31 20.0009 31Z" fill="#0FF47F"/>
<path d="M9 19.9999C9 19.5948 9.32816 19.2666 9.73333 19.2666H11.2C11.6052 19.2666 11.9333 19.5948 11.9333 19.9999C11.9333 20.4051 11.6052 20.7333 11.2 20.7333H9.73333C9.32816 20.7333 9 20.4051 9 19.9999Z" fill="#0FF47F"/>
<path d="M28.7997 19.2666C28.3946 19.2666 28.0664 19.5948 28.0664 19.9999C28.0664 20.4051 28.3946 20.7333 28.7997 20.7333H30.2664C30.6716 20.7333 30.9997 20.4051 30.9997 19.9999C30.9997 19.5948 30.6716 19.2666 30.2664 19.2666H28.7997Z" fill="#0FF47F"/>
<path d="M12.2211 27.778C11.9341 27.4919 11.9341 27.0272 12.2211 26.7412L13.2578 25.7035C13.5447 25.4175 14.0086 25.4175 14.2955 25.7035C14.5815 25.9904 14.5815 26.4543 14.2955 26.7412L13.2578 27.778C12.9718 28.0649 12.5071 28.0649 12.2211 27.778Z" fill="#0FF47F"/>
<path d="M25.7054 13.2588C25.4185 13.5448 25.4185 14.0095 25.7054 14.2955C25.9914 14.5825 26.4562 14.5825 26.7422 14.2955L27.7789 13.2588C28.0659 12.9728 28.0659 12.508 27.7789 12.222C27.4929 11.9351 27.0282 11.9351 26.7422 12.222L25.7054 13.2588Z" fill="#0FF47F"/>
<path d="M12.2211 12.222C12.5071 11.9351 12.9718 11.9351 13.2578 12.222L14.2955 13.2588C14.5815 13.5457 14.5815 14.0095 14.2955 14.2965C14.0086 14.5825 13.5447 14.5825 13.2578 14.2965L12.2211 13.2588C11.9341 12.9728 11.9341 12.508 12.2211 12.222Z" fill="#0FF47F"/>
<path d="M26.7422 25.7045C26.4562 25.4175 25.9914 25.4175 25.7054 25.7045C25.4185 25.9905 25.4185 26.4552 25.7054 26.7412L26.7422 27.778C27.0282 28.0649 27.4929 28.0649 27.7789 27.778C28.0659 27.492 28.0659 27.0272 27.7789 26.7412L26.7422 25.7045Z" fill="#0FF47F"/>
</g>
</g>
<rect x="0.5" y="0.5" width="39" height="39" rx="3.5" stroke="#122220" stroke-opacity="0.4"/>
<rect x="0.5" y="0.5" width="39" height="39" rx="3.5" stroke="url(#paint0_linear_677_60861)" stroke-opacity="0.3"/>
<defs>
<filter id="filter0_d_677_60861" x="-4" y="-4" width="48" height="48" filterUnits="userSpaceOnUse" color-interpolation-filters="sRGB">
<feFlood flood-opacity="0" result="BackgroundImageFix"/>
<feColorMatrix in="SourceAlpha" type="matrix" values="0 0 0 0 0 0 0 0 0 0 0 0 0 0 0 0 0 0 127 0" result="hardAlpha"/>
<feOffset/>
<feGaussianBlur stdDeviation="6"/>
<feColorMatrix type="matrix" values="0 0 0 0 0.0588235 0 0 0 0 0.956863 0 0 0 0 0.498039 0 0 0 0.5 0"/>
<feBlend mode="normal" in2="BackgroundImageFix" result="effect1_dropShadow_677_60861"/>
<feBlend mode="normal" in="SourceGraphic" in2="effect1_dropShadow_677_60861" result="shape"/>
</filter>
<linearGradient id="paint0_linear_677_60861" x1="14.0505" y1="30.1786" x2="-3.15432" y2="13.0241" gradientUnits="userSpaceOnUse">
<stop stop-color="#008080" stop-opacity="0"/>
<stop offset="0.715" stop-color="#008080"/>
<stop offset="1" stop-color="#0FF47F"/>
</linearGradient>
<clipPath id="clip0_677_60861">
<rect width="40" height="40" rx="4" fill="white"/>
</clipPath>
</defs>
</svg>
