<svg width="40" height="40" viewBox="0 0 40 40" fill="none" xmlns="http://www.w3.org/2000/svg">
<rect width="40" height="40" rx="4" fill="url(#paint0_radial_455_35609)" fill-opacity="0.2"/>
<rect x="0.5" y="0.5" width="39" height="39" rx="3.5" stroke="#756897" stroke-opacity="0.3"/>
<g filter="url(#filter0_d_455_35609)">
<path d="M14.7016 29H10.3469V14.9797H14.7016V29ZM12.5219 13.0672C11.1297 13.0672 10 11.9141 10 10.5219C10 9.85303 10.2657 9.21158 10.7386 8.73864C11.2116 8.2657 11.853 8 12.5219 8C13.1907 8 13.8322 8.2657 14.3051 8.73864C14.7781 9.21158 15.0437 9.85303 15.0437 10.5219C15.0437 11.9141 13.9141 13.0672 12.5219 13.0672ZM30.9953 29H26.65V22.175C26.65 20.5484 26.6172 18.4625 24.3859 18.4625C22.1219 18.4625 21.775 20.2297 21.775 22.0578V29H17.425V14.9797H21.6016V16.8922H21.6625C22.2438 15.7906 23.6641 14.6281 25.7828 14.6281C30.1891 14.6281 31 17.5297 31 21.2984V29H30.9953Z" fill="#998DF8"/>
</g>
<defs>
<filter id="filter0_d_455_35609" x="5.39024" y="3.39024" width="30.2195" height="30.2195" filterUnits="userSpaceOnUse" color-interpolation-filters="sRGB">
<feFlood flood-opacity="0" result="BackgroundImageFix"/>
<feColorMatrix in="SourceAlpha" type="matrix" values="0 0 0 0 0 0 0 0 0 0 0 0 0 0 0 0 0 0 127 0" result="hardAlpha"/>
<feOffset/>
<feGaussianBlur stdDeviation="2.30488"/>
<feComposite in2="hardAlpha" operator="out"/>
<feColorMatrix type="matrix" values="0 0 0 0 0.572549 0 0 0 0 0.435294 0 0 0 0 0.952941 0 0 0 1 0"/>
<feBlend mode="normal" in2="BackgroundImageFix" result="effect1_dropShadow_455_35609"/>
<feBlend mode="normal" in="SourceGraphic" in2="effect1_dropShadow_455_35609" result="shape"/>
</filter>
<radialGradient id="paint0_radial_455_35609" cx="0" cy="0" r="1" gradientUnits="userSpaceOnUse" gradientTransform="translate(5 31) rotate(-47.5638) scale(47.4236 35.3488)">
<stop stop-color="#190B30"/>
<stop offset="1" stop-color="#01020A"/>
</radialGradient>
</defs>
</svg>
