<svg width="16" height="16" viewBox="0 0 16 16" fill="none" xmlns="http://www.w3.org/2000/svg">
<path d="M1.10241 7.92426C1.50589 8.32864 2.1788 8.32864 2.58296 7.92426L6.90628 3.59136L6.90628 14.9548C6.90628 15.5278 7.37745 16 7.94916 16C8.52087 16 8.99205 15.5278 8.99205 14.9548L8.99205 3.57416L13.4166 8.00857C13.8201 8.41294 14.493 8.41294 14.8972 8.00857C15.3007 7.60419 15.3007 6.92978 14.8972 6.52473L8.89158 0.505808C8.85807 0.472219 8.82456 0.43863 8.79038 0.421507C8.60506 0.168603 8.30279 1.31186e-06 7.94924 1.25005e-06C7.61278 1.19122e-06 7.32693 0.15148 7.12519 0.404376L1.10241 6.4405C0.698933 6.84553 0.698926 7.51987 1.10241 7.92426Z" fill="#7E759D"/>
</svg>
