<svg width="6" height="273" viewBox="0 0 6 273" fill="none" xmlns="http://www.w3.org/2000/svg">
<path d="M3 0.333333C1.52724 0.333333 0.333333 1.52724 0.333333 3C0.333333 4.47276 1.52724 5.66667 3 5.66667C4.47276 5.66667 5.66667 4.47276 5.66667 3C5.66667 1.52724 4.47276 0.333333 3 0.333333ZM2.99999 267.333C1.52723 267.333 0.333322 268.527 0.333322 270C0.333322 271.473 1.52723 272.667 2.99999 272.667C4.47275 272.667 5.66666 271.473 5.66666 270C5.66666 268.527 4.47275 267.333 2.99999 267.333ZM2.5 3L2.49999 270L3.49999 270L3.5 3L2.5 3Z" fill="url(#paint0_linear_192_8801)"/>
<defs>
<linearGradient id="paint0_linear_192_8801" x1="3" y1="2.99995" x2="3.00093" y2="270" gradientUnits="userSpaceOnUse">
<stop stop-color="#008080"/>
<stop offset="1" stop-color="#0FF47F"/>
</linearGradient>
</defs>
</svg>
