<svg width="6" height="30" viewBox="0 0 6 30" fill="none" xmlns="http://www.w3.org/2000/svg">
<path d="M3 0.333333C1.52724 0.333333 0.333333 1.52724 0.333333 3C0.333333 4.47276 1.52724 5.66667 3 5.66667C4.47276 5.66667 5.66667 4.47276 5.66667 3C5.66667 1.52724 4.47276 0.333333 3 0.333333ZM3 24.3333C1.52724 24.3333 0.333332 25.5272 0.333332 27C0.333332 28.4728 1.52724 29.6667 3 29.6667C4.47276 29.6667 5.66667 28.4728 5.66667 27C5.66667 25.5272 4.47276 24.3333 3 24.3333ZM2.5 3L2.5 27L3.5 27L3.5 3L2.5 3Z" fill="url(#paint0_linear_192_8758)"/>
<defs>
<linearGradient id="paint0_linear_192_8758" x1="3" y1="3" x2="3.00001" y2="27" gradientUnits="userSpaceOnUse">
<stop stop-color="#008080"/>
<stop offset="1" stop-color="#0FF47F"/>
</linearGradient>
</defs>
</svg>
