<svg width="64" height="54" viewBox="0 0 64 54" fill="none" xmlns="http://www.w3.org/2000/svg">
<g filter="url(#filter0_d_591_8083)">
<path d="M29.0119 26.7867C30.7653 28.5402 33.6231 28.5402 35.3764 26.7867L44.955 17.2128C44.2919 16.8258 43.5224 16.6006 42.7004 16.6006H21.3011C20.5824 16.6006 19.9038 16.7749 19.2993 17.074L29.0119 26.7867Z" fill="#998DF8"/>
<path d="M47.2 33.1747V21.1025C47.2 20.1556 46.9039 19.2781 46.4027 18.5518L37.6338 27.3206L46.1374 35.8242L44.5375 37.2851C45.947 36.5232 47.1999 34.885 47.1999 33.1717L47.2 33.1747Z" fill="#998DF8"/>
<path d="M16.8007 21.1019V33.1741C16.8007 35.657 18.8179 37.674 21.3007 37.674H42.6984C43.4247 37.674 44.1079 37.4967 44.7156 37.1928L36.2072 28.6845C35.0352 29.6129 33.6179 30.0786 32.1961 30.0786C30.5413 30.0786 28.8881 29.451 27.6251 28.191L18.9825 36.8336L17.5853 35.4363L26.2279 26.7938L17.7642 18.3301C17.1643 19.0965 16.8003 20.0558 16.8003 21.1014L16.8007 21.1019Z" fill="#998DF8"/>
</g>
<defs>
<filter id="filter0_d_591_8083" x="0.800293" y="0.600586" width="62.3999" height="53.0732" filterUnits="userSpaceOnUse" color-interpolation-filters="sRGB">
<feFlood flood-opacity="0" result="BackgroundImageFix"/>
<feColorMatrix in="SourceAlpha" type="matrix" values="0 0 0 0 0 0 0 0 0 0 0 0 0 0 0 0 0 0 127 0" result="hardAlpha"/>
<feOffset/>
<feGaussianBlur stdDeviation="8"/>
<feComposite in2="hardAlpha" operator="out"/>
<feColorMatrix type="matrix" values="0 0 0 0 0.572549 0 0 0 0 0.435294 0 0 0 0 0.952941 0 0 0 1 0"/>
<feBlend mode="normal" in2="BackgroundImageFix" result="effect1_dropShadow_591_8083"/>
<feBlend mode="normal" in="SourceGraphic" in2="effect1_dropShadow_591_8083" result="shape"/>
</filter>
</defs>
</svg>
