<svg width="41" height="40" viewBox="0 0 41 40" fill="none" xmlns="http://www.w3.org/2000/svg">
<g opacity="0.4">
<rect x="0.5" y="-0.000976562" width="40" height="40" rx="4" fill="url(#paint0_radial_500_16776)" fill-opacity="0.2"/>
<rect x="1" y="0.499023" width="39" height="39" rx="3.5" stroke="#756897" stroke-opacity="0.3"/>
<path d="M20.4053 28.6208C20.9108 28.1164 20.9108 27.2753 20.4053 26.7701L14.9892 21.3659L29.1935 21.3659C29.9097 21.3659 30.5 20.777 30.5 20.0623C30.5 19.3477 29.9097 18.7587 29.1935 18.7587L14.9677 18.7587L20.5107 13.228C21.0162 12.7236 21.0162 11.8825 20.5107 11.3773C20.0052 10.8729 19.1622 10.8729 18.6559 11.3773L11.1323 18.8843C11.0903 18.9262 11.0483 18.9681 11.0269 19.0108C10.7108 19.2424 10.5 19.6203 10.5 20.0622C10.5 20.4828 10.6893 20.8401 11.0055 21.0923L18.5506 28.6208C19.0569 29.1251 19.8998 29.1251 20.4053 28.6208Z" fill="#7E759D"/>
</g>
<defs>
<radialGradient id="paint0_radial_500_16776" cx="0" cy="0" r="1" gradientUnits="userSpaceOnUse" gradientTransform="translate(5.5 30.999) rotate(-47.5638) scale(47.4236 35.3488)">
<stop stop-color="#190B30"/>
<stop offset="1" stop-color="#01020A"/>
</radialGradient>
</defs>
</svg>
