<svg width="100" height="40" viewBox="0 0 100 40" fill="none" xmlns="http://www.w3.org/2000/svg">
<g clip-path="url(#clip0_75_6895)">
<path d="M98.7075 25.5658V25.2888H98.882C98.9743 25.2888 99.1077 25.2991 99.1077 25.4119C99.1077 25.5248 99.0359 25.5658 98.923 25.5658H98.7075ZM98.7075 25.7608H98.8307L99.1077 26.243H99.4052L99.0974 25.7403C99.2513 25.7505 99.3744 25.6377 99.3847 25.4838V25.4427C99.3847 25.176 99.2 25.0939 98.8922 25.0939H98.4511V26.243H98.7075V25.7608ZM100 25.6684C100 24.9913 99.477 24.6014 98.8922 24.6014C98.3074 24.6014 97.7842 24.9913 97.7842 25.6684C97.7842 26.3456 98.3074 26.7354 98.8922 26.7354C99.477 26.7354 100 26.3456 100 25.6684ZM99.6719 25.6684C99.6925 26.0993 99.3539 26.4687 98.923 26.4892H98.8922C98.4408 26.5097 98.0612 26.1506 98.0407 25.6992C98.0201 25.2478 98.3792 24.8682 98.8307 24.8477C99.2821 24.8272 99.6617 25.1862 99.6822 25.6377C99.6719 25.6479 99.6719 25.6582 99.6719 25.6684Z" fill="white"/>
<path d="M59.3205 14.2699V26.3762H62.7369V14.2699H59.3205ZM32.4404 14.2494V26.3659H35.8876V16.9579L38.5756 16.9682C39.458 16.9682 40.0735 17.1836 40.4942 17.635C41.0379 18.2096 41.2534 19.1432 41.2534 20.836V26.3659H44.598V19.6767C44.598 14.8957 41.5509 14.2494 38.5756 14.2494H32.4404ZM64.8299 14.2699V26.3762H70.3701C73.3248 26.3762 74.2892 25.8837 75.3254 24.786C76.0641 24.0165 76.536 22.3134 76.536 20.4564C76.536 18.7533 76.1359 17.2349 75.428 16.291C74.1763 14.5982 72.3501 14.2699 69.6211 14.2699H64.8299ZM68.2155 16.8964H69.6827C71.8167 16.8964 73.1914 17.8505 73.1914 20.3333C73.1914 22.8161 71.8167 23.7805 69.6827 23.7805H68.2155V16.8964ZM54.3959 14.2699L51.5437 23.8626L48.8147 14.2699H45.1213L49.0199 26.3762H53.9445L57.8842 14.2699H54.3959ZM78.1365 26.3762H81.553V14.2699H78.1365V26.3762ZM87.719 14.2699L82.9483 26.3659H86.3134L87.0726 24.2217H92.7154L93.4336 26.3557H97.0962L92.2845 14.2699H87.719ZM89.935 16.4757L92.0075 22.139H87.8011L89.935 16.4757Z" fill="white"/>
<path d="M10.3929 16.281V14.6189C10.5571 14.6087 10.7212 14.5984 10.8854 14.5984C15.4406 14.4548 18.4262 18.5176 18.4262 18.5176C18.4262 18.5176 15.2047 22.9907 11.7472 22.9907C11.2855 22.9907 10.8341 22.9189 10.4032 22.7753V17.7276C12.1781 17.943 12.5372 18.7228 13.5939 20.4977L15.9639 18.5073C15.9639 18.5073 14.23 16.24 11.3163 16.24C11.0085 16.2297 10.7007 16.2502 10.3929 16.281ZM10.3929 10.7819V13.2647L10.8854 13.2339C17.2156 13.0184 21.3502 18.4252 21.3502 18.4252C21.3502 18.4252 16.6102 24.1911 11.6754 24.1911C11.2445 24.1911 10.8238 24.1501 10.4032 24.0783V25.6172C10.752 25.6582 11.1111 25.689 11.4599 25.689C16.0562 25.689 19.3803 23.3396 22.6018 20.5695C23.1353 21.0004 25.3206 22.0366 25.772 22.488C22.7147 25.0529 15.5843 27.1151 11.542 27.1151C11.1522 27.1151 10.7828 27.0946 10.4135 27.0535V29.2183H27.8752V10.7819H10.3929ZM10.3929 22.7753V24.0885C6.14548 23.3293 4.96563 18.9074 4.96563 18.9074C4.96563 18.9074 7.00729 16.6503 10.3929 16.281V17.7173H10.3827C8.60778 17.5019 7.21248 19.1639 7.21248 19.1639C7.21248 19.1639 8.00246 21.9648 10.3929 22.7753ZM2.85216 18.7228C2.85216 18.7228 5.36575 15.0088 10.4032 14.6189V13.2647C4.822 13.7161 0 18.4355 0 18.4355C0 18.4355 2.72905 26.3354 10.3929 27.0535V25.6172C4.7707 24.9195 2.85216 18.7228 2.85216 18.7228Z" fill="#76B900"/>
</g>
<defs>
<clipPath id="clip0_75_6895">
<rect width="100" height="40" fill="white"/>
</clipPath>
</defs>
</svg>
