<svg width="40" height="40" viewBox="0 0 40 40" fill="none" xmlns="http://www.w3.org/2000/svg">
<rect width="40" height="40" rx="4" fill="url(#paint0_radial_455_35626)"/>
<rect x="0.5" y="0.5" width="39" height="39" rx="3.5" stroke="#756897" stroke-opacity="0.3"/>
<g filter="url(#filter0_d_455_35626)">
<path d="M14 19.1435C13.9962 19.1435 13.9925 19.1435 13.988 19.1435C13.5147 19.1435 13.1306 19.5268 13.1306 20.0009C13.1306 20.4749 13.5139 20.8582 13.988 20.8582C13.9925 20.8582 13.9962 20.8582 14.0007 20.8582H26.0006C26.0044 20.8582 26.0081 20.8582 26.0126 20.8582C26.4859 20.8582 26.87 20.4749 26.87 20.0009C26.87 19.5268 26.4867 19.1435 26.0126 19.1435C26.0081 19.1435 26.0044 19.1435 25.9999 19.1435H14Z" fill="#998DF8"/>
</g>
<g filter="url(#filter1_d_455_35626)">
<path d="M20.8553 13.999C20.8553 13.9953 20.8553 13.9915 20.8553 13.987C20.8553 13.5137 20.472 13.1297 19.998 13.1297C19.5239 13.1297 19.1406 13.5129 19.1406 13.987C19.1406 13.9915 19.1406 13.9953 19.1406 13.9998V13.999V25.9997C19.1406 26.0034 19.1406 26.0072 19.1406 26.0117C19.1406 26.485 19.5239 26.869 19.998 26.869C20.472 26.869 20.8553 26.4857 20.8553 26.0117C20.8553 26.0072 20.8553 26.0034 20.8553 25.9989V25.9997V13.999Z" fill="#998DF8"/>
</g>
<g filter="url(#filter2_d_455_35626)">
<path d="M19.9994 7.99867C13.3814 7.99867 7.99878 13.3821 7.99878 19.9993C7.99878 26.6166 13.3822 32 19.9994 32C26.6175 32 32.0001 26.6166 32.0001 19.9993C32.0001 13.3821 26.6167 7.99867 19.9994 7.99867ZM19.9994 9.71337C25.6911 9.71337 30.2862 14.3092 30.2862 20.0001C30.2862 25.691 25.6911 30.2868 19.9994 30.2868C14.3078 30.2868 9.71273 25.6918 9.71273 20.0001C9.71273 14.3084 14.3078 9.71337 19.9994 9.71337Z" fill="#998DF8"/>
</g>
<defs>
<filter id="filter0_d_455_35626" x="6.13062" y="12.1435" width="27.7393" height="15.7147" filterUnits="userSpaceOnUse" color-interpolation-filters="sRGB">
<feFlood flood-opacity="0" result="BackgroundImageFix"/>
<feColorMatrix in="SourceAlpha" type="matrix" values="0 0 0 0 0 0 0 0 0 0 0 0 0 0 0 0 0 0 127 0" result="hardAlpha"/>
<feOffset/>
<feGaussianBlur stdDeviation="3.5"/>
<feComposite in2="hardAlpha" operator="out"/>
<feColorMatrix type="matrix" values="0 0 0 0 0.572549 0 0 0 0 0.435294 0 0 0 0 0.952941 0 0 0 1 0"/>
<feBlend mode="normal" in2="BackgroundImageFix" result="effect1_dropShadow_455_35626"/>
<feBlend mode="normal" in="SourceGraphic" in2="effect1_dropShadow_455_35626" result="shape"/>
</filter>
<filter id="filter1_d_455_35626" x="12.1406" y="6.12965" width="15.7146" height="27.7394" filterUnits="userSpaceOnUse" color-interpolation-filters="sRGB">
<feFlood flood-opacity="0" result="BackgroundImageFix"/>
<feColorMatrix in="SourceAlpha" type="matrix" values="0 0 0 0 0 0 0 0 0 0 0 0 0 0 0 0 0 0 127 0" result="hardAlpha"/>
<feOffset/>
<feGaussianBlur stdDeviation="3.5"/>
<feComposite in2="hardAlpha" operator="out"/>
<feColorMatrix type="matrix" values="0 0 0 0 0.572549 0 0 0 0 0.435294 0 0 0 0 0.952941 0 0 0 1 0"/>
<feBlend mode="normal" in2="BackgroundImageFix" result="effect1_dropShadow_455_35626"/>
<feBlend mode="normal" in="SourceGraphic" in2="effect1_dropShadow_455_35626" result="shape"/>
</filter>
<filter id="filter2_d_455_35626" x="0.998779" y="0.998672" width="38.0012" height="38.0013" filterUnits="userSpaceOnUse" color-interpolation-filters="sRGB">
<feFlood flood-opacity="0" result="BackgroundImageFix"/>
<feColorMatrix in="SourceAlpha" type="matrix" values="0 0 0 0 0 0 0 0 0 0 0 0 0 0 0 0 0 0 127 0" result="hardAlpha"/>
<feOffset/>
<feGaussianBlur stdDeviation="3.5"/>
<feComposite in2="hardAlpha" operator="out"/>
<feColorMatrix type="matrix" values="0 0 0 0 0.572549 0 0 0 0 0.435294 0 0 0 0 0.952941 0 0 0 1 0"/>
<feBlend mode="normal" in2="BackgroundImageFix" result="effect1_dropShadow_455_35626"/>
<feBlend mode="normal" in="SourceGraphic" in2="effect1_dropShadow_455_35626" result="shape"/>
</filter>
<radialGradient id="paint0_radial_455_35626" cx="0" cy="0" r="1" gradientUnits="userSpaceOnUse" gradientTransform="translate(5 31) rotate(-47.5638) scale(47.4236 35.3488)">
<stop stop-color="#190B30"/>
<stop offset="1" stop-color="#01020A"/>
</radialGradient>
</defs>
</svg>
